<?xml version="1.0" encoding="UTF-8" standalone="no"?>
<!DOCTYPE svg PUBLIC "-//W3C//DTD SVG 1.1//EN" "http://www.w3.org/Graphics/SVG/1.1/DTD/svg11.dtd">
<!-- Created with Vectornator (http://vectornator.io/) -->
<svg height="100%" stroke-miterlimit="10" style="fill-rule:nonzero;clip-rule:evenodd;stroke-linecap:round;stroke-linejoin:round;" version="1.1" viewBox="0 0 512 512" width="100%" xml:space="preserve" xmlns="http://www.w3.org/2000/svg" xmlns:xlink="http://www.w3.org/1999/xlink">
<defs/>
<g id="Untitled">
<path d="M120.791 255.812C120.791 181.254 181.232 120.812 255.791 120.812C330.349 120.812 390.791 181.254 390.791 255.812C390.791 330.37 330.349 390.812 255.791 390.812C181.232 390.812 120.791 330.37 120.791 255.812Z" fill="#ffe177" fill-rule="nonzero" opacity="1" stroke="none"/>
<path d="M332.828 418.361L357.869 403.954L391.487 462.389L366.446 476.795L332.828 418.361Z" fill="#ffe177" fill-rule="nonzero" opacity="1" stroke="none"/>
<path d="M120.211 53.0791L145.252 38.673L175.442 91.1501L150.402 105.556L120.211 53.0791Z" fill="#ffe177" fill-rule="nonzero" opacity="1" stroke="none"/>
<path d="M345.1 401.5C335.7 404.5 329.4 414.3 330.2 424.3C330.6 428.9 332.2 432.5 342 449.6C355.2 472.7 359.8 478 367.9 480C375.7 481.8 382 480 388 474.1C394.6 467.8 396.6 459.9 393.8 451.9C392.1 446.9 371.2 411 368.1 407.7C362.4 401.4 353 398.9 345.1 401.5ZM356.7 417.1C358.9 419 380 456.7 380 458.9C380 461.6 375.8 466 373.1 466C372 466 370 465 368.6 463.7C365 460.4 345 425 345 421.8C345 416.5 352.3 413.5 356.7 417.1Z" fill="#000000" fill-rule="nonzero" opacity="1" stroke="none"/>
<path d="M245.816 440.375L265.766 440.375L265.766 499.6L245.816 499.6L245.816 440.375Z" fill="#ffe177" fill-rule="nonzero" opacity="1" stroke="none"/>
<path d="M419.372 335.492L475.282 369.844L462.342 390.905L406.432 356.553L419.372 335.492Z" fill="#ffe177" fill-rule="nonzero" opacity="1" stroke="none"/>
<path d="M50.2434 121.145L106.154 155.497L93.2137 176.558L37.3035 142.206L50.2434 121.145Z" fill="#ffe177" fill-rule="nonzero" opacity="1" stroke="none"/>
<path d="M438.367 243.312L499.145 243.312L499.145 268.312L438.367 268.312L438.367 243.312Z" fill="#ffe177" fill-rule="nonzero" opacity="1" stroke="none"/>
<path d="M12.8653 243.312L73.6433 243.312L73.6433 268.312L12.8653 268.312L12.8653 243.312Z" fill="#ffe177" fill-rule="nonzero" opacity="1" stroke="none"/>
<path d="M407.215 153.319L463.407 122.43L476.181 145.669L419.989 176.558L407.215 153.319Z" fill="#ffe177" fill-rule="nonzero" opacity="1" stroke="none"/>
<path d="M37.3035 366.283L93.4954 335.395L106.27 358.633L50.0777 389.522L37.3035 366.283Z" fill="#ffe177" fill-rule="nonzero" opacity="1" stroke="none"/>
<path d="M368.384 36.0599L391.487 49.8374L356.748 108.089L333.645 94.3119L368.384 36.0599Z" fill="#ffe177" fill-rule="nonzero" opacity="1" stroke="none"/>
<path d="M155.767 403.954L178.87 417.732L144.131 475.984L121.028 462.207L155.767 403.954Z" fill="#ffe177" fill-rule="nonzero" opacity="1" stroke="none"/>
<path d="M245.816 11.7L265.766 11.7L265.766 71.4652L245.816 71.4652L245.816 11.7Z" fill="#ffe177" fill-rule="nonzero" opacity="1" stroke="none"/>
<g opacity="1">
<path d="M248 1.29999C243.2 2.79999 236.7 9.59999 235.2 14.6C234.4 17.4 234 26.9 234 43.8L234 68.8L236.8 74.1C240.8 81.8 247 85.5 256 85.5C265 85.5 271.2 81.8 275.2 74.1L278 68.8L278 43.5C278 27.3 277.6 17.1 276.9 14.9C273 3.49999 260.2-2.60001 248 1.29999ZM261 17C262.9 18.9 263 20.3 263 42.7C263 65.6 262.9 66.4 260.8 68.7C258.1 71.6 254.3 71.6 251.3 68.8C249 66.7 249 66.4 249 42.8C249 20.3 249.1 18.9 251 17C252.1 15.9 254.3 15 256 15C257.7 15 259.9 15.9 261 17Z" fill="#000000" fill-rule="nonzero" opacity="1" stroke="none"/>
</g>
<path d="M132.6 32.2C127.3 33.6 119.5 41.3 118.1 46.5C114.2 60.9 123.3 73.8 131.7 65.4C133.6 63.5 134.1 62.2 133.6 60.2C131.7 51.1 131.7 51.2 134.3 48.6C137.5 45.4 140.1 45.3 143.4 48.2C147 51.6 167 87 167 90.2C167 93.8 162.5 97.4 159 96.5C155.6 95.6 154.2 94.3 151.9 89.8C149 84.1 146.5 82 142.6 82C139 82 135 85.6 135 88.8C135 91.2 141.5 102.2 144.7 105.1C154.1 113.9 167.4 113.7 175.7 104.7C180.6 99.4 182.4 94.4 181.8 87.6C181.4 83.1 179.7 79.4 169.9 62.4C156.6 39.2 152.9 34.6 145.7 32.5C140 30.8 138.1 30.8 132.6 32.2Z" fill="#000000" fill-rule="nonzero" opacity="1" stroke="none"/>
<path d="M365.9 32.5C359.1 34.7 355.1 39.8 342.1 62.4C332.3 79.4 330.6 83.1 330.2 87.6C329.6 94.4 331.4 99.4 336.3 104.7C344.8 113.9 359.4 113.8 368.1 104.3C371.2 101 392.1 65.1 393.8 60.1C399.6 43.4 383 27 365.9 32.5ZM377.5 48.5C378.9 49.8 380 51.9 380 53.1C380 55.3 358.9 93 356.7 94.9C352.3 98.5 345 95.5 345 90.2C345 87 365 51.6 368.6 48.2C371.8 45.3 374.5 45.4 377.5 48.5Z" fill="#000000" fill-rule="nonzero" opacity="1" stroke="none"/>
<path d="M232.5 113.6C190.2 120.7 153.7 145.9 131.4 183.3C125 194.2 118.5 210.5 115.4 223.6C112 238.1 111 264.7 113.4 279C118 307.5 130.5 332.9 149.8 353.2C167.5 371.7 187.5 384.6 211.1 392.5C228.8 398.5 235.3 399.5 257.5 399.5C279 399.5 286.3 398.5 302 393.3C317.3 388.2 340.5 374.9 346.5 367.8C349.5 364.2 349.6 362.1 346.9 358.6C343.5 354.3 339.8 355.1 330 362.1C308.4 377.6 285 385 257.5 385C220.5 385 185.7 369.8 160.1 342.5C138.5 319.3 127 289.7 127 257.1C127 220.8 139.7 190 164.9 164.9C190.5 139.3 220.3 127 256.5 127C278.3 127 295.9 131 313.7 140.1C326.8 146.8 335 152.8 346.5 164.4C361.4 179.5 371.7 196 378.3 216C391.1 254.1 385.7 294.8 363.7 327.7C359.9 333.2 358.9 335.5 359.2 338.1C359.6 342.2 363.7 345.5 367.4 344.6C373.4 343.1 387.2 319.9 393.4 300.9C398.6 284.6 399.5 278.6 399.5 257.5C399.5 236.3 398.4 229.1 392.5 211.4C384.6 187.8 371.6 167.4 353.2 149.8C333.4 131 307.8 118.2 280.6 113.5C269.6 111.6 243.7 111.7 232.5 113.6Z" fill="#000000" fill-rule="nonzero" opacity="1" stroke="none"/>
<path d="M46.5 118C42.1 119.4 36.2 124.6 33.8 129.3C29.6 137.6 31.7 148.7 38.7 155.1C42 158.2 78 179.1 82.9 180.8C90.8 183.6 98.7 181.5 105.1 175.1C112.8 167.5 114 157.3 108.2 148.1C105.3 143.4 103.1 141.9 76.1 126.4C62.4 118.6 60.1 117.6 55.1 117.3C52 117.2 48.2 117.5 46.5 118ZM74 142.6C92.7 153.2 97 156.5 97 160.1C97 162.8 92.6 167 89.9 167C87.6 167 49.9 145.8 47.9 143.3C44.5 139.3 48.1 132 53.4 132C54.6 132 63.9 136.8 74 142.6Z" fill="#000000" fill-rule="nonzero" opacity="1" stroke="none"/>
<path d="M450.4 118.4C447.2 119.8 418.8 136.1 410.7 141.2C399 148.6 396.7 164.1 405.8 174.2C412.1 181.2 420.8 183.7 429.1 180.8C433.9 179.2 469.9 158.3 473.3 155.1C483.1 146.1 482.6 130.6 472.3 122.1C466.2 117.1 457 115.5 450.4 118.4ZM463.1 133.8C465.6 135.9 466.2 140.9 464.1 143.3C462.1 145.8 424.4 167 422.1 167C419.4 167 415 162.8 415 160.1C415 159 416 157 417.3 155.6C420.2 152.3 455.8 132 458.6 132C459.8 132 461.8 132.8 463.1 133.8Z" fill="#000000" fill-rule="nonzero" opacity="1" stroke="none"/>
<path d="M11.9 236.7C4.2 240.7 0.5 246.9 0.5 256C0.5 265.1 4.2 271.3 11.9 275.2L17.4 278L42.9 278C67.8 278 68.6 277.9 73.6 275.6C87.2 269.3 90.3 251.2 79.5 240.5C73.5 234.5 70.8 234 42.3 234L17.4 234L11.9 236.7ZM69 251C70.1 252.1 71 254.3 71 256C71 257.7 70.1 259.9 69 261C67.1 262.9 65.7 263 43.1 263L19.1 263L17.1 260.4C15.9 258.9 15 257 15 256C15 255 15.9 253.1 17.1 251.6L19.1 249L43.1 249C65.7 249 67.1 249.1 69 251Z" fill="#000000" fill-rule="nonzero" opacity="1" stroke="none"/>
<path d="M440 235.3C438.1 235.9 434.7 238.2 432.5 240.5C423.9 249.1 423.8 262.9 432.5 271.5C438.5 277.5 441.2 278 469.7 278L494.6 278L500.1 275.2C507.8 271.3 511.5 265.1 511.5 256C511.5 246.9 507.8 240.7 500.1 236.7L494.6 234L469.1 234.1C453.4 234.2 442.2 234.6 440 235.3ZM494.9 251.6C497.5 255 497.5 257 494.9 260.4L492.9 263L468.9 263C446.3 263 444.9 262.9 443 261C441.9 259.9 441 257.7 441 256C441 254.3 441.9 252.1 443 251C444.9 249.1 446.3 249 468.9 249L492.9 249L494.9 251.6Z" fill="#000000" fill-rule="nonzero" opacity="1" stroke="none"/>
<path d="M154 251C150.3 254.7 151.9 273.7 157.4 289.6C170.8 329 207.1 357.2 247.7 359.7C260.3 360.4 263 359.3 263 353.1C263 347.2 260.7 345.8 249.6 344.9C221.2 342.5 197 328.4 181.6 305.2C173 292.1 167 273.8 167 260.2C167 252.6 164.5 249 159.4 249C157.3 249 155.2 249.8 154 251Z" fill="#000000" fill-rule="nonzero" opacity="1" stroke="none"/>
<path d="M83.5 330.7C80.3 331.5 41.8 354 38.7 356.9C26.2 368.4 31.2 389.4 47.6 394C55.3 396.2 59.8 394.9 74.3 386.6C102.5 370.4 105.4 368.5 108.2 363.9C113.6 355.3 112.8 345.1 106.2 337.8C100.3 331.3 91.9 328.6 83.5 330.7ZM94.5 347.5C97.6 350.5 97.7 353.2 94.8 356.4C91.8 359.7 56.2 380 53.4 380C49.9 380 46.7 376.7 46.7 373.1C46.7 371.3 47.3 369.2 48.2 368.4C51 365.5 87.5 345 89.8 345C91.1 345 93.2 346.1 94.5 347.5Z" fill="#000000" fill-rule="nonzero" opacity="1" stroke="none"/>
<path d="M414.5 331.5C409.1 333.4 402.5 340.6 401 346.1C398.1 356.6 402.6 365.9 413.5 372.5C449.6 394.2 455.2 396.6 464.4 394C480.8 389.4 485.8 368.4 473.3 356.9C470 353.8 434.1 332.9 429.1 331.2C424.7 329.6 419.5 329.7 414.5 331.5ZM443.6 356.1C454.3 362.2 463.5 367.9 464.1 368.7C467.5 372.7 463.9 380 458.6 380C455.8 380 420.2 359.7 417.3 356.4C416 355 415 353 415 351.9C415 349.2 419.4 345 422.1 345C423.3 345 433 350 443.6 356.1Z" fill="#000000" fill-rule="nonzero" opacity="1" stroke="none"/>
<path d="M153.8 401.2C146.9 403 142.8 407.9 130.8 428.8C124.5 439.6 118.8 450 118.2 451.9C115.6 459.2 117.4 467.7 122.8 473.3C131.8 482.8 146.2 483 154.6 473.8C156.8 471.4 163.6 460.5 169.9 449.6C182.3 428 183.7 423.7 181 415.4C179 409.5 172.6 403.3 166.7 401.5C161 399.8 159.1 399.8 153.8 401.2ZM164.4 417.1C166 418.4 167 420.1 167 421.8C167 425 147 460.4 143.4 463.7C142 465 140 466 138.9 466C136.2 466 132 461.6 132 458.8C132 457.5 137.1 447.7 143.3 437C156.3 414.5 158.5 412.4 164.4 417.1Z" fill="#000000" fill-rule="nonzero" opacity="1" stroke="none"/>
<path d="M246 428.7C242 430.8 239.7 432.9 237.5 436.5L234.5 441.3L234.2 466.9C233.8 494.4 234.3 498 238.7 503.9C242 508.1 250.1 512 256 512C261.9 512 270 508.1 273.2 503.9C277.6 497.9 278 495.1 278 468.5L278 443.2L275.2 437.9C271.5 430.9 265.2 426.8 257.2 426.2C252.4 425.9 250.6 426.3 246 428.7ZM260.7 443.2C263 445.3 263 445.6 263 469.2C263 491.7 262.9 493.1 261 495C258.4 497.6 253.6 497.6 251 495C249.1 493.1 249 491.7 249 469.3C249 446.4 249.1 445.6 251.2 443.3C253.9 440.4 257.7 440.4 260.7 443.2Z" fill="#000000" fill-rule="nonzero" opacity="1" stroke="none"/>
</g>
</svg>
