<?xml version="1.0" encoding="UTF-8"?>
<!DOCTYPE svg PUBLIC "-//W3C//DTD SVG 1.1//EN" "http://www.w3.org/Graphics/SVG/1.1/DTD/svg11.dtd">
<svg xmlns="http://www.w3.org/2000/svg" version="1.1" width="100px" height="100px" style="shape-rendering:geometricPrecision; text-rendering:geometricPrecision; image-rendering:optimizeQuality; fill-rule:evenodd; clip-rule:evenodd" xmlns:xlink="http://www.w3.org/1999/xlink">
<g><path style="opacity:0.935" fill="#000000" d="M 37.5,3.5 C 38.8333,3.5 40.1667,3.5 41.5,3.5C 41.5,8.16667 41.5,12.8333 41.5,17.5C 40.1667,17.5 38.8333,17.5 37.5,17.5C 37.5,12.8333 37.5,8.16667 37.5,3.5 Z"/></g>
<g><path style="opacity:0.807" fill="#000000" d="M 89.5,5.5 C 90.8333,5.5 92.1667,5.5 93.5,5.5C 93.6567,6.87344 93.49,8.20677 93,9.5C 65.1667,37.3333 37.3333,65.1667 9.5,93C 8.20677,93.49 6.87344,93.6567 5.5,93.5C 5.34332,92.1266 5.50999,90.7932 6,89.5C 34.0349,61.632 61.8682,33.632 89.5,5.5 Z"/></g>
<g><path style="opacity:0.761" fill="#000000" d="M 14.5,12.5 C 19.7076,15.0324 23.0409,19.0324 24.5,24.5C 23.1266,24.6567 21.7932,24.49 20.5,24C 18,21.5 15.5,19 13,16.5C 12.7003,14.9343 13.2003,13.601 14.5,12.5 Z"/></g>
<g><path style="opacity:0.76" fill="#000000" d="M 62.5,12.5 C 65.0014,12.8256 66.1681,14.1589 66,16.5C 63.5,19 61,21.5 58.5,24C 57.2068,24.49 55.8734,24.6567 54.5,24.5C 54.3433,23.1266 54.51,21.7932 55,20.5C 57.705,17.9638 60.205,15.2971 62.5,12.5 Z"/></g>
<g><path style="opacity:0.761" fill="#000000" d="M 33.5,21.5 C 42.8493,19.5541 50.1826,22.3874 55.5,30C 54.3333,31.1667 53.1667,32.3333 52,33.5C 44.3047,24.5952 36.3047,24.2618 28,32.5C 24.6781,40.4769 26.5114,46.9769 33.5,52C 32.3333,53.1667 31.1667,54.3333 30,55.5C 22.2231,50.1804 19.5565,42.8471 22,33.5C 24.0188,27.6498 27.8522,23.6498 33.5,21.5 Z"/></g>
<g><path style="opacity:0.907" fill="#000000" d="M 87.5,31.5 C 88.8333,31.5 90.1667,31.5 91.5,31.5C 91.5,32.8333 91.5,34.1667 91.5,35.5C 92.8333,35.5 94.1667,35.5 95.5,35.5C 95.5,36.8333 95.5,38.1667 95.5,39.5C 94.1667,39.5 92.8333,39.5 91.5,39.5C 91.5,40.8333 91.5,42.1667 91.5,43.5C 90.1667,43.5 88.8333,43.5 87.5,43.5C 87.5,42.1667 87.5,40.8333 87.5,39.5C 86.1667,39.5 84.8333,39.5 83.5,39.5C 83.5,38.1667 83.5,36.8333 83.5,35.5C 84.8333,35.5 86.1667,35.5 87.5,35.5C 87.5,34.1667 87.5,32.8333 87.5,31.5 Z"/></g>
<g><path style="opacity:0.932" fill="#000000" d="M 3.5,37.5 C 8.16667,37.5 12.8333,37.5 17.5,37.5C 17.5,38.8333 17.5,40.1667 17.5,41.5C 12.8333,41.5 8.16667,41.5 3.5,41.5C 3.5,40.1667 3.5,38.8333 3.5,37.5 Z"/></g>
<g><path style="opacity:0.786" fill="#000000" d="M 67.5,49.5 C 70.8333,49.5 74.1667,49.5 77.5,49.5C 77.6567,50.8734 77.49,52.2068 77,53.5C 72.3443,57.7259 71.3443,62.7259 74,68.5C 76.1317,71.3158 78.9651,72.6491 82.5,72.5C 87.0617,71.2315 91.395,69.5649 95.5,67.5C 95.2211,85.9369 85.8878,93.7702 67.5,91C 52.9277,83.4419 49.4277,72.2752 57,57.5C 59.94,53.9632 63.44,51.2965 67.5,49.5 Z M 67.5,55.5 C 67.5078,59.5945 67.6744,63.9279 68,68.5C 72.7763,77.0792 79.9429,79.9125 89.5,77C 84.142,86.1745 76.4753,88.8412 66.5,85C 58.1855,78.7995 56.3521,70.9662 61,61.5C 63.0627,59.2659 65.2294,57.2659 67.5,55.5 Z"/></g>
<g><path style="opacity:0.749" fill="#000000" d="M 21.5,53.5 C 24.0014,53.8256 25.1681,55.1589 25,57.5C 22.5,60 20,62.5 17.5,65C 13.3134,66.1556 12.1467,64.989 14,61.5C 16.705,58.9638 19.205,56.2971 21.5,53.5 Z"/></g>
<g><path style="opacity:0.907" fill="#000000" d="M 41.5,83.5 C 42.8333,83.5 44.1667,83.5 45.5,83.5C 45.5,84.8333 45.5,86.1667 45.5,87.5C 46.8333,87.5 48.1667,87.5 49.5,87.5C 49.5,88.8333 49.5,90.1667 49.5,91.5C 48.1667,91.5 46.8333,91.5 45.5,91.5C 45.5,92.8333 45.5,94.1667 45.5,95.5C 44.1667,95.5 42.8333,95.5 41.5,95.5C 41.5,94.1667 41.5,92.8333 41.5,91.5C 40.1667,91.5 38.8333,91.5 37.5,91.5C 37.5,90.1667 37.5,88.8333 37.5,87.5C 38.8333,87.5 40.1667,87.5 41.5,87.5C 41.5,86.1667 41.5,84.8333 41.5,83.5 Z"/></g>
</svg>
