<?xml version="1.0" encoding="UTF-8" standalone="no"?>
<!DOCTYPE svg PUBLIC "-//W3C//DTD SVG 20010904//EN" "http://www.w3.org/TR/2001/REC-SVG-20010904/DTD/svg10.dtd">
<svg version="1.0" xmlns="http://www.w3.org/2000/svg" width="500.000000pt" height="500.000000pt" viewBox="0 0 500.000000 500.000000" preserveAspectRatio="xMidYMid meet"><script xmlns="" id="custom-useragent-string-page-script"/><script xmlns=""/>
<metadata>
Created by potrace 1.14, written by Peter Selinger 2001-2017
</metadata>
<g transform="translate(0.000000,500.000000) scale(0.100000,-0.100000)" fill="#000000" stroke="none">
<path d="M955 3782 c-46 -22 -116 -94 -162 -167 -17 -27 -73 -126 -125 -220 -187 -337 -335 -554 -547 -805 -98 -117 -102 -122 -46 -73 274 238 460 462 730 882 102 158 172 245 205 256 41 13 116 -51 185 -159 19 -30 68 -120 109 -201 139 -272 233 -375 419 -460 226 -103 555 -107 827 -10 108 39 268 123 398 209 l112 75 0 -260 0 -259 -150 0 c-137 0 -152 -2 -170 -20 -19 -19 -20 -33 -20 -500 l0 -481 25 -24 24 -25 356 0 356 0 24 25 25 24 0 479 0 479 -23 21 c-22 20 -33 22 -165 22 l-142 0 0 309 0 310 83 59 c154 112 296 176 457 206 263 50 511 -31 649 -212 59 -77 84 -134 125 -287 57 -215 94 -294 180 -383 55 -57 127 -100 215 -126 81 -24 84 -19 10 13 -195 83 -270 198 -319 486 -25 151 -43 212 -85 295 -120 238 -360 372 -670 373 -129 1 -194 -9 -320 -50 -124 -40 -224 -94 -435 -238 -357 -242 -511 -325 -687 -372 -87 -24 -117 -27 -268 -27 -148 0 -180 2 -250 22 -105 30 -188 76 -250 137 -63 62 -93 105 -185 270 -96 172 -161 264 -230 328 -97 90 -185 116 -265 79z m2435 -1712 l0 -390 -265 0 -265 0 0 390 0 390 265 0 265 0 0 -390z"/>
</g>
</svg>