<?xml version="1.0" standalone="no"?>
<!DOCTYPE svg PUBLIC "-//W3C//DTD SVG 20010904//EN"
 "http://www.w3.org/TR/2001/REC-SVG-20010904/DTD/svg10.dtd">
<svg version="1.0" xmlns="http://www.w3.org/2000/svg"
 width="512.000000pt" height="512.000000pt" viewBox="0 0 512.000000 512.000000"
 preserveAspectRatio="xMidYMid meet">

<g transform="translate(0.000000,512.000000) scale(0.100000,-0.100000)"
fill="#000000" stroke="none">
<path d="M615 3254 c-11 -2 -45 -9 -75 -15 -113 -22 -242 -94 -334 -185 -274
-275 -272 -721 5 -991 90 -88 189 -146 311 -180 60 -17 166 -18 2038 -18 1872
0 1978 1 2038 18 261 74 453 279 506 539 20 98 20 178 0 276 -52 258 -240 459
-500 539 -56 17 -169 18 -2014 19 -1075 1 -1964 0 -1975 -2z m3949 -252 c199
-75 319 -241 318 -442 0 -206 -127 -377 -332 -446 -53 -18 -129 -19 -1990 -19
-1861 0 -1937 1 -1990 19 -115 38 -198 103 -261 199 -182 281 -5 659 331 707
30 4 912 7 1960 6 l1905 -1 59 -23z"/>
</g>
</svg>
