<?xml version="1.0" standalone="no"?>
<!DOCTYPE svg PUBLIC "-//W3C//DTD SVG 20010904//EN"
 "http://www.w3.org/TR/2001/REC-SVG-20010904/DTD/svg10.dtd">
<svg version="1.0" xmlns="http://www.w3.org/2000/svg"
 width="512.000000pt" height="512.000000pt" viewBox="0 0 512.000000 512.000000"
 preserveAspectRatio="xMidYMid meet">

<g transform="translate(0.000000,512.000000) scale(0.100000,-0.100000)"
fill="#000000" stroke="none">
<path d="M2503 4881 c-51 -13 -96 -44 -128 -90 l-30 -43 0 -767 0 -767 27 -42
c83 -125 266 -127 353 -4 l30 44 3 746 c2 512 0 759 -8 784 -28 97 -147 163
-247 139z"/>
<path d="M1554 4205 c-173 -90 -376 -246 -526 -403 -288 -303 -476 -680 -553
-1107 -26 -143 -31 -443 -10 -605 88 -699 510 -1301 1135 -1619 332 -170 652
-240 1030 -228 641 21 1228 325 1613 837 734 974 492 2360 -528 3033 -140 92
-195 117 -260 117 -145 0 -248 -138 -204 -271 20 -59 56 -95 146 -150 133 -79
228 -152 336 -258 249 -242 409 -539 480 -885 32 -162 32 -471 -1 -634 -32
-158 -73 -277 -146 -427 -237 -482 -692 -824 -1222 -915 -138 -24 -378 -29
-514 -10 -274 38 -554 153 -776 318 -119 88 -283 255 -367 372 -80 113 -185
319 -227 447 -250 758 56 1571 747 1984 107 63 129 82 155 133 16 31 19 54 16
106 -5 86 -38 138 -111 175 -74 36 -129 34 -213 -10z"/>
</g>
</svg>
