<?xml version="1.0" encoding="UTF-8" standalone="no"?>
<!DOCTYPE svg PUBLIC "-//W3C//DTD SVG 1.1//EN" "http://www.w3.org/Graphics/SVG/1.1/DTD/svg11.dtd">
<!-- Created with Vectornator (http://vectornator.io/) -->
<svg height="100%" stroke-miterlimit="10" style="fill-rule:nonzero;clip-rule:evenodd;stroke-linecap:round;stroke-linejoin:round;" version="1.1" viewBox="0 0 512 512" width="100%" xml:space="preserve" xmlns="http://www.w3.org/2000/svg" xmlns:xlink="http://www.w3.org/1999/xlink">
<defs/>
<g id="Untitled">
<path d="M250.3 23.9C245.2 25.2 240.7 28.3 237.5 32.9L234.5 37.2L234.5 113.9L234.5 190.6L237.2 194.8C245.5 207.3 263.8 207.5 272.5 195.2L275.5 190.8L275.8 116.2C276 65 275.8 40.3 275 37.8C272.2 28.1 260.3 21.5 250.3 23.9Z" fill="#ffe177" fill-rule="nonzero" opacity="1" stroke="#000000" stroke-linecap="butt" stroke-linejoin="round" stroke-width="10"/>
<path d="M155.4 91.5C142.77 96.7217 132.008 105.816 121.473 114.522C79.8564 148.915 49.9476 201.31 45.9516 255.708C33.5797 424.124 200.596 539.144 353.25 464.262C455.643 414.035 497.764 276.661 441.759 177.483C421.015 140.749 390.03 106.202 350.336 89.5344C347.245 88.2366 343.5 88.6889 340.28 89.6189C332.671 91.8165 325.464 97.7793 324.392 106.255C323.801 110.931 323.688 116.766 326.959 120.159C343.605 137.424 364.943 149.599 382.22 166.232C411.288 194.214 423.013 238.2 423.688 277.062C425.465 379.501 336.98 450.626 238.547 444.601C229.712 444.06 220.78 442.708 212.438 439.748C127.715 409.691 82.1187 346.671 88.6562 256.214C91.2691 220.062 111.429 188.041 133.997 161.116C146.798 145.843 166.022 137.367 181.488 124.8C184.118 122.663 186.382 119.664 187.167 116.367C193.021 91.7926 173.254 84.1184 155.4 91.5Z" fill="#d7c9c4" fill-rule="nonzero" opacity="1" stroke="#000000" stroke-linecap="butt" stroke-linejoin="round" stroke-width="10"/>
</g>
</svg>
