<?xml version="1.0" standalone="no"?>
<!DOCTYPE svg PUBLIC "-//W3C//DTD SVG 20010904//EN"
 "http://www.w3.org/TR/2001/REC-SVG-20010904/DTD/svg10.dtd">
<svg version="1.0" xmlns="http://www.w3.org/2000/svg"
 width="512.000000pt" height="512.000000pt" viewBox="0 0 512.000000 512.000000"
 preserveAspectRatio="xMidYMid meet">

<g transform="translate(0.000000,512.000000) scale(0.100000,-0.100000)"
fill="#000000" stroke="none">
<path d="M1326 4798 c-53 -14 -131 -91 -145 -143 -39 -144 52 -273 136 -189
19 19 24 32 19 52 -19 91 -19 90 7 116 32 32 58 33 91 4 36 -34 236 -388 236
-420 0 -36 -45 -72 -80 -63 -34 9 -48 22 -71 67 -29 57 -54 78 -93 78 -36 0
-76 -36 -76 -68 0 -24 65 -134 97 -163 94 -88 227 -86 310 4 49 53 67 103 61
171 -4 45 -21 82 -119 252 -133 232 -170 278 -242 299 -57 17 -76 17 -131 3z"/>
<path d="M2325 3984 c-423 -71 -788 -323 -1011 -697 -64 -109 -129 -272 -160
-403 -34 -145 -44 -411 -20 -554 46 -285 171 -539 364 -742 177 -185 377 -314
613 -393 177 -60 242 -70 464 -70 215 0 288 10 445 62 153 51 385 184 445 255
30 36 31 57 4 92 -34 43 -71 35 -169 -35 -216 -155 -450 -229 -725 -229 -370
0 -718 152 -974 425 -216 232 -331 528 -331 854 0 363 127 671 379 922 256
256 554 379 916 379 218 0 394 -40 572 -131 131 -67 213 -127 328 -243 149
-151 252 -316 318 -516 128 -381 74 -788 -146 -1117 -38 -55 -48 -78 -45 -104
4 -41 45 -74 82 -65 60 15 198 247 260 437 52 163 61 223 61 434 0 212 -11
284 -70 461 -79 236 -209 440 -393 616 -198 188 -454 316 -726 363 -110 19
-369 18 -481 -1z"/>
<path d="M4504 3936 c-32 -14 -316 -177 -397 -228 -117 -74 -140 -229 -49
-330 63 -70 150 -95 233 -66 48 16 408 225 442 257 98 90 93 245 -10 330 -61
50 -153 66 -219 37z m127 -154 c25 -21 31 -71 10 -95 -20 -25 -397 -237 -420
-237 -27 0 -71 42 -71 69 0 11 10 31 23 45 29 33 385 236 413 236 12 0 32 -8
45 -18z"/>
<path d="M1540 2610 c-37 -37 -21 -227 34 -386 134 -394 497 -676 903 -701
126 -7 153 4 153 66 0 59 -23 73 -134 82 -284 24 -526 165 -680 397 -86 131
-146 314 -146 450 0 76 -25 112 -76 112 -21 0 -42 -8 -54 -20z"/>
<path d="M835 1813 c-32 -8 -417 -233 -448 -262 -125 -115 -75 -325 89 -371
77 -22 122 -9 267 74 282 162 311 181 339 227 54 86 46 188 -20 261 -59 65
-143 92 -227 71z m110 -168 c31 -30 32 -57 3 -89 -30 -33 -386 -236 -414 -236
-35 0 -67 33 -67 69 0 18 6 39 15 47 28 29 393 234 416 234 13 0 34 -11 47
-25z"/>
<path d="M3451 1105 c-94 -30 -157 -128 -149 -228 4 -46 20 -82 118 -253 132
-231 178 -284 259 -304 78 -18 141 0 201 59 66 63 86 142 58 222 -17 50 -226
409 -257 442 -57 63 -151 88 -230 62z m116 -156 c22 -19 233 -396 233 -418 0
-27 -42 -71 -69 -71 -11 0 -31 10 -45 23 -36 33 -236 387 -236 419 0 53 73 83
117 47z"/>
</g>
</svg>
