<?xml version="1.0" standalone="no"?>
<!DOCTYPE svg PUBLIC "-//W3C//DTD SVG 20010904//EN"
 "http://www.w3.org/TR/2001/REC-SVG-20010904/DTD/svg10.dtd">
<svg version="1.0" xmlns="http://www.w3.org/2000/svg"
 width="512.000000pt" height="512.000000pt" viewBox="0 0 512.000000 512.000000"
 preserveAspectRatio="xMidYMid meet">

<g transform="translate(0.000000,512.000000) scale(0.100000,-0.100000)"
fill="#000000" stroke="none">
<path d="M2480 5107 c-48 -15 -113 -83 -128 -133 -8 -28 -12 -123 -12 -292 l0
-250 28 -53 c40 -77 102 -114 192 -114 90 0 152 37 192 114 l28 53 0 253 c0
162 -4 264 -11 286 -39 114 -167 175 -289 136z m130 -157 c19 -19 20 -33 20
-257 0 -229 -1 -237 -22 -260 -27 -29 -65 -29 -95 -1 -23 21 -23 24 -23 260 0
225 1 239 20 258 11 11 33 20 50 20 17 0 39 -9 50 -20z"/>
<path d="M1326 4798 c-53 -14 -131 -91 -145 -143 -39 -144 52 -273 136 -189
19 19 24 32 19 52 -19 91 -19 90 7 116 32 32 58 33 91 4 36 -34 236 -388 236
-420 0 -36 -45 -72 -80 -63 -34 9 -48 22 -71 67 -29 57 -54 78 -93 78 -36 0
-76 -36 -76 -68 0 -24 65 -134 97 -163 94 -88 227 -86 310 4 49 53 67 103 61
171 -4 45 -21 82 -119 252 -133 232 -170 278 -242 299 -57 17 -76 17 -131 3z"/>
<path d="M2325 3984 c-423 -71 -788 -323 -1011 -697 -64 -109 -129 -272 -160
-403 -34 -145 -44 -411 -20 -554 46 -285 171 -539 364 -742 177 -185 377 -314
613 -393 177 -60 242 -70 464 -70 215 0 288 10 445 62 153 51 385 184 445 255
30 36 31 57 4 92 -34 43 -71 35 -169 -35 -216 -155 -450 -229 -725 -229 -370
0 -718 152 -974 425 -216 232 -331 528 -331 854 0 363 127 671 379 922 256
256 554 379 916 379 218 0 394 -40 572 -131 131 -67 213 -127 328 -243 149
-151 252 -316 318 -516 128 -381 74 -788 -146 -1117 -38 -55 -48 -78 -45 -104
4 -41 45 -74 82 -65 60 15 198 247 260 437 52 163 61 223 61 434 0 212 -11
284 -70 461 -79 236 -209 440 -393 616 -198 188 -454 316 -726 363 -110 19
-369 18 -481 -1z"/>
<path d="M4504 3936 c-32 -14 -316 -177 -397 -228 -117 -74 -140 -229 -49
-330 63 -70 150 -95 233 -66 48 16 408 225 442 257 98 90 93 245 -10 330 -61
50 -153 66 -219 37z m127 -154 c25 -21 31 -71 10 -95 -20 -25 -397 -237 -420
-237 -27 0 -71 42 -71 69 0 11 10 31 23 45 29 33 385 236 413 236 12 0 32 -8
45 -18z"/>
<path d="M119 2753 c-77 -40 -114 -102 -114 -193 0 -91 37 -153 114 -192 l55
-28 255 0 c249 0 257 1 307 24 136 63 167 244 59 351 -60 60 -87 65 -372 65
l-249 0 -55 -27z m571 -143 c11 -11 20 -33 20 -50 0 -17 -9 -39 -20 -50 -19
-19 -33 -20 -259 -20 l-240 0 -20 26 c-12 15 -21 34 -21 44 0 10 9 29 21 44
l20 26 240 0 c226 0 240 -1 259 -20z"/>
<path d="M4400 2767 c-19 -6 -53 -29 -75 -52 -86 -86 -87 -224 0 -310 60 -60
87 -65 372 -65 l249 0 55 28 c77 39 114 101 114 192 0 91 -37 153 -114 193
l-55 27 -255 -1 c-157 -1 -269 -5 -291 -12z m549 -163 c26 -34 26 -54 0 -88
l-20 -26 -240 0 c-226 0 -240 1 -259 20 -11 11 -20 33 -20 50 0 17 9 39 20 50
19 19 33 20 259 20 l240 0 20 -26z"/>
<path d="M1540 2610 c-37 -37 -21 -227 34 -386 134 -394 497 -676 903 -701
126 -7 153 4 153 66 0 59 -23 73 -134 82 -284 24 -526 165 -680 397 -86 131
-146 314 -146 450 0 76 -25 112 -76 112 -21 0 -42 -8 -54 -20z"/>
<path d="M835 1813 c-32 -8 -417 -233 -448 -262 -125 -115 -75 -325 89 -371
77 -22 122 -9 267 74 282 162 311 181 339 227 54 86 46 188 -20 261 -59 65
-143 92 -227 71z m110 -168 c31 -30 32 -57 3 -89 -30 -33 -386 -236 -414 -236
-35 0 -67 33 -67 69 0 18 6 39 15 47 28 29 393 234 416 234 13 0 34 -11 47
-25z"/>
<path d="M3451 1105 c-94 -30 -157 -128 -149 -228 4 -46 20 -82 118 -253 132
-231 178 -284 259 -304 78 -18 141 0 201 59 66 63 86 142 58 222 -17 50 -226
409 -257 442 -57 63 -151 88 -230 62z m116 -156 c22 -19 233 -396 233 -418 0
-27 -42 -71 -69 -71 -11 0 -31 10 -45 23 -36 33 -236 387 -236 419 0 53 73 83
117 47z"/>
<path d="M2460 833 c-40 -21 -63 -42 -85 -78 l-30 -48 -3 -256 c-4 -275 1
-311 45 -370 33 -42 114 -81 173 -81 59 0 140 39 172 81 44 60 48 88 48 354
l0 253 -28 53 c-37 70 -100 111 -180 117 -48 3 -66 -1 -112 -25z m147 -145
c23 -21 23 -24 23 -260 0 -225 -1 -239 -20 -258 -26 -26 -74 -26 -100 0 -19
19 -20 33 -20 257 0 229 1 237 22 260 27 29 65 29 95 1z"/>
</g>
</svg>
