<svg height="100%" stroke-miterlimit="10" style="fill-rule:nonzero;clip-rule:evenodd;stroke-linecap:round;stroke-linejoin:round;" version="1.1" viewBox="0 0 500 500" width="100%" xml:space="preserve" xmlns="http://www.w3.org/2000/svg" xmlns:xlink="http://www.w3.org/1999/xlink">
<defs/>
<g id="Layer-2">
<path d="M150.83 329.873L152.271 294.921L89.9346 308.974L111.554 262.491L15.3465 255.645L101.105 215.288L54.6224 172.77L116.599 167.004L108.311 106.469L164.162 128.809L169.567 65.0313L213.888 125.927L256.407 84.1287L261.091 138.899L331.355 116.198L298.205 178.535L347.93 197.993L305.411 242.313L273.447 305.189L185.77 333.291L150.83 329.873Z" fill="#000000" fill-rule="nonzero" opacity="1" stroke="#000000" stroke-linecap="butt" stroke-linejoin="round" stroke-width="10"/>
</g>
<g id="Layer-4">
<path d="M111.123 222.093C111.123 171.392 152.225 130.291 202.926 130.291C253.627 130.291 294.728 171.392 294.728 222.093C294.728 272.794 253.627 313.896 202.926 313.896C152.225 313.896 111.123 272.794 111.123 222.093Z" fill="#ffe177" fill-rule="nonzero" opacity="1" stroke="#000000" stroke-linecap="butt" stroke-linejoin="round" stroke-width="9.75122"/>
</g>
<g id="Layer-3">
<path d="M185.171 329.187C185.171 329.187 160.073 303.709 191.255 281.273C222.438 258.837 273.774 285.075 273.774 285.075C273.774 285.075 287.084 225.753 358.955 237.161C430.826 248.569 414.094 299.526 414.094 299.526C414.094 299.526 485.205 300.666 486.345 347.82C487.486 394.973 381.391 441.747 300.393 377.861C300.393 377.861 273.394 414.367 243.353 408.663C213.311 402.959 207.128 380.502 207.128 380.502C207.128 380.502 137.435 420.968 119.45 377.13C101.465 333.291 185.171 329.187 185.171 329.187Z" fill="#d7c9c4" fill-rule="nonzero" opacity="1" stroke="#000000" stroke-linecap="butt" stroke-linejoin="round" stroke-width="10"/>
</g>
</svg>
